<svg xmlns="http://www.w3.org/2000/svg" width="512" height="512" viewBox="0 0 512 512" role="img" aria-label="IGG Store">
  <defs>
    <linearGradient id="bg" x1="80" y1="60" x2="460" y2="480" gradientUnits="userSpaceOnUse">
      <stop offset="0" stop-color="#0B1220"></stop>
      <stop offset="0.55" stop-color="#0A2A6A"></stop>
      <stop offset="1" stop-color="#08D0FF"></stop>
    </linearGradient>

    <linearGradient id="accent" x1="100" y1="120" x2="420" y2="420" gradientUnits="userSpaceOnUse">
      <stop offset="0" stop-color="#18E6FF"></stop>
      <stop offset="1" stop-color="#5B7CFF"></stop>
    </linearGradient>

    <filter id="softGlow" x="-20%" y="-20%" width="140%" height="140%">
      <feGaussianBlur stdDeviation="10" result="blur"></feGaussianBlur>
      <feColorMatrix in="blur" type="matrix" values="1 0 0 0 0
                0 1 0 0 0
                0 0 1 0 0
                0 0 0 .35 0" result="glow"></feColorMatrix>
      <feMerge>
        <feMergeNode in="glow"></feMergeNode>
        <feMergeNode in="SourceGraphic"></feMergeNode>
      </feMerge>
    </filter>
  </defs>

  <!-- Background -->
  <rect x="44" y="44" width="424" height="424" rx="96" fill="url(#bg)"></rect>

  <!-- Hex outline -->
  <path d="M256 108 L366 172 V340 L256 404 L146 340 V172 Z" fill="none" stroke="url(#accent)" stroke-width="10" opacity="0.95"></path>

  <!-- Circuit lines + nodes -->
  <g stroke="url(#accent)" stroke-width="6" stroke-linecap="round" opacity="0.9" filter="url(#softGlow)">
    <path d="M164 214 H212"></path>
    <circle cx="164" cy="214" r="7" fill="#18E6FF"></circle>

    <path d="M348 214 H300"></path>
    <circle cx="348" cy="214" r="7" fill="#18E6FF"></circle>

    <path d="M164 310 H212"></path>
    <circle cx="164" cy="310" r="7" fill="#18E6FF"></circle>

    <path d="M348 310 H300"></path>
    <circle cx="348" cy="310" r="7" fill="#18E6FF"></circle>
  </g>

  <!-- IGG monogram -->
  <g filter="url(#softGlow)">
    <!-- I -->
    <rect x="195" y="182" width="16" height="148" rx="8" fill="#EAF6FF"></rect>
    <rect x="185" y="176" width="36" height="14" rx="7" fill="#EAF6FF"></rect>
    <rect x="185" y="330" width="36" height="14" rx="7" fill="#EAF6FF"></rect>

    <!-- G (left) -->
    <path d="M256 192
             c-40 0-62 26-62 64
             s22 64 62 64
             c30 0 50-12 58-32
             v-22h-40v18h22
             c-7 12-20 18-40 18
             c-28 0-42-18-42-46
             s14-46 42-46
             c17 0 30 6 38 18
             l16-10
             c-12-20-32-30-54-30z" fill="#EAF6FF"></path>

    <!-- G (right) -->
    <path d="M330 192
             c-40 0-62 26-62 64
             s22 64 62 64
             c30 0 50-12 58-32
             v-22h-40v18h22
             c-7 12-20 18-40 18
             c-28 0-42-18-42-46
             s14-46 42-46
             c17 0 30 6 38 18
             l16-10
             c-12-20-32-30-54-30z" fill="#EAF6FF" opacity="0.96"></path>
  </g>

  <!-- tiny highlight -->
  <circle cx="386" cy="132" r="6" fill="#18E6FF" opacity="0.9"></circle>
</svg>
